<?xml version="1.0" standalone="no"?>
<!DOCTYPE svg PUBLIC "-//W3C//DTD SVG 20010904//EN"
 "http://www.w3.org/TR/2001/REC-SVG-20010904/DTD/svg10.dtd">
<svg version="1.0" xmlns="http://www.w3.org/2000/svg"
 width="497.000000pt" height="502.000000pt" viewBox="0 0 497.000000 502.000000"
 preserveAspectRatio="xMidYMid meet">

<g transform="translate(0.000000,502.000000) scale(0.100000,-0.100000)"
fill="#000000" stroke="none">
<path d="M2151 4779 c-363 -24 -714 -139 -1033 -338 -541 -336 -904 -898 -993
-1533 -30 -214 -16 -513 34 -733 43 -189 78 -288 171 -480 120 -248 244 -408
545 -708 312 -310 447 -414 710 -542 522 -256 1064 -303 1623 -140 584 169
1070 578 1337 1120 208 423 274 902 185 1335 -73 352 -209 648 -428 930 -82
104 -476 500 -592 594 -366 295 -795 464 -1265 496 -77 5 -149 9 -160 8 -11 0
-71 -4 -134 -9z m509 -127 c677 -121 1232 -532 1531 -1132 317 -637 269 -1401
-127 -2001 -321 -488 -829 -814 -1424 -914 -132 -22 -410 -30 -551 -16 -720
75 -1366 520 -1674 1156 -455 939 -133 2046 760 2612 242 153 551 265 850 307
156 22 479 15 635 -12z m1783 -1372 c126 -247 197 -497 217 -770 39 -511 -117
-1005 -447 -1420 -291 -366 -743 -639 -1218 -735 -469 -95 -940 -33 -1370 180
-82 41 -161 85 -175 97 -14 13 -21 20 -15 17 73 -43 380 -127 565 -155 138
-20 430 -23 570 -5 937 120 1679 783 1885 1684 49 214 62 519 30 742 -20 149
-73 354 -119 471 -49 122 -16 78 77 -106z"/>
<path d="M1967 3703 c-3 -5 -55 -123 -117 -263 -98 -223 -188 -426 -432 -980
-66 -150 -106 -241 -297 -674 -72 -164 -131 -302 -131 -307 0 -5 139 -9 319
-9 l318 0 88 220 88 220 474 -2 474 -3 83 -205 c45 -113 86 -211 90 -218 5 -9
86 -12 326 -12 175 0 321 3 323 8 3 4 -24 70 -58 147 -34 77 -122 275 -195
440 -73 165 -193 437 -267 605 -74 168 -187 422 -250 565 -63 143 -136 307
-162 365 l-47 105 -311 3 c-172 1 -314 -1 -316 -5z m436 -928 c63 -159 125
-314 136 -342 l21 -53 -284 0 -284 0 53 133 c29 72 92 230 140 350 48 120 91
215 95 210 4 -4 59 -138 123 -298z"/>
</g>
</svg>
